ISO-10303-21;
HEADER;
/* Generated by software containing ST-Developer
 * from STEP Tools, Inc. (www.steptools.com) 
 */

FILE_DESCRIPTION(
/* description */ (''),
/* implementation_level */ '2;1');

FILE_NAME(
/* name */ 'Hackpad.step',
/* time_stamp */ '2026-08-01T01:01:00-04:00',
/* author */ (''),
/* organization */ (''),
/* preprocessor_version */ 'ST-DEVELOPER v20.1',
/* originating_system */ 'Autodesk Translation Framework v15.8.0.0',
/* authorisation */ '');

FILE_SCHEMA (('AUTOMOTIVE_DESIGN { 1 0 10303 214 3 1 1 }'));
ENDSEC;

DATA;
#10=MECHANICAL_DESIGN_GEOMETRIC_PRESENTATION_REPRESENTATION('',(#13),#1185);
#11=SHAPE_REPRESENTATION_RELATIONSHIP('SRR','None',#1192,#12);
#12=ADVANCED_BREP_SHAPE_REPRESENTATION('',(#14),#1184);
#13=STYLED_ITEM('',(#1201),#14);
#14=MANIFOLD_SOLID_BREP('Body1',#697);
#15=CYLINDRICAL_SURFACE('',#721,0.499999999999998);
#16=CYLINDRICAL_SURFACE('',#725,0.499999999999998);
#17=CYLINDRICAL_SURFACE('',#729,0.500000000000003);
#18=CYLINDRICAL_SURFACE('',#733,0.5);
#19=CYLINDRICAL_SURFACE('',#737,0.499999999999998);
#20=CYLINDRICAL_SURFACE('',#741,0.499999999999998);
#21=CYLINDRICAL_SURFACE('',#745,0.499999999999998);
#22=CYLINDRICAL_SURFACE('',#749,0.5);
#23=CYLINDRICAL_SURFACE('',#753,0.5);
#24=CYLINDRICAL_SURFACE('',#757,0.499999999999998);
#25=CYLINDRICAL_SURFACE('',#761,0.499999999999998);
#26=CYLINDRICAL_SURFACE('',#765,0.5);
#27=CYLINDRICAL_SURFACE('',#776,1.45);
#28=CYLINDRICAL_SURFACE('',#777,1.45);
#29=CYLINDRICAL_SURFACE('',#778,1.45);
#30=CYLINDRICAL_SURFACE('',#779,1.45);
#31=FACE_BOUND('',#112,.T.);
#32=FACE_BOUND('',#113,.T.);
#33=FACE_BOUND('',#114,.T.);
#34=FACE_BOUND('',#115,.T.);
#35=FACE_BOUND('',#145,.T.);
#36=FACE_BOUND('',#146,.T.);
#37=FACE_BOUND('',#147,.T.);
#38=FACE_BOUND('',#148,.T.);
#39=FACE_BOUND('',#149,.T.);
#40=FACE_BOUND('',#150,.T.);
#41=FACE_BOUND('',#151,.T.);
#42=CIRCLE('',#712,1.45);
#43=CIRCLE('',#713,1.45);
#44=CIRCLE('',#714,1.45);
#45=CIRCLE('',#715,1.45);
#46=CIRCLE('',#722,0.499999999999998);
#47=CIRCLE('',#723,0.499999999999998);
#48=CIRCLE('',#726,0.499999999999998);
#49=CIRCLE('',#727,0.499999999999998);
#50=CIRCLE('',#730,0.500000000000003);
#51=CIRCLE('',#731,0.500000000000003);
#52=CIRCLE('',#734,0.5);
#53=CIRCLE('',#735,0.5);
#54=CIRCLE('',#738,0.499999999999998);
#55=CIRCLE('',#739,0.499999999999998);
#56=CIRCLE('',#742,0.499999999999998);
#57=CIRCLE('',#743,0.499999999999998);
#58=CIRCLE('',#746,0.499999999999998);
#59=CIRCLE('',#747,0.499999999999998);
#60=CIRCLE('',#750,0.5);
#61=CIRCLE('',#751,0.5);
#62=CIRCLE('',#754,0.5);
#63=CIRCLE('',#755,0.5);
#64=CIRCLE('',#758,0.499999999999998);
#65=CIRCLE('',#759,0.499999999999998);
#66=CIRCLE('',#762,0.499999999999998);
#67=CIRCLE('',#763,0.499999999999998);
#68=CIRCLE('',#766,0.5);
#69=CIRCLE('',#767,0.5);
#70=CIRCLE('',#769,1.45);
#71=CIRCLE('',#770,1.45);
#72=CIRCLE('',#771,1.45);
#73=CIRCLE('',#772,1.45);
#74=FACE_OUTER_BOUND('',#111,.T.);
#75=FACE_OUTER_BOUND('',#116,.T.);
#76=FACE_OUTER_BOUND('',#117,.T.);
#77=FACE_OUTER_BOUND('',#118,.T.);
#78=FACE_OUTER_BOUND('',#119,.T.);
#79=FACE_OUTER_BOUND('',#120,.T.);
#80=FACE_OUTER_BOUND('',#121,.T.);
#81=FACE_OUTER_BOUND('',#122,.T.);
#82=FACE_OUTER_BOUND('',#123,.T.);
#83=FACE_OUTER_BOUND('',#124,.T.);
#84=FACE_OUTER_BOUND('',#125,.T.);
#85=FACE_OUTER_BOUND('',#126,.T.);
#86=FACE_OUTER_BOUND('',#127,.T.);
#87=FACE_OUTER_BOUND('',#128,.T.);
#88=FACE_OUTER_BOUND('',#129,.T.);
#89=FACE_OUTER_BOUND('',#130,.T.);
#90=FACE_OUTER_BOUND('',#131,.T.);
#91=FACE_OUTER_BOUND('',#132,.T.);
#92=FACE_OUTER_BOUND('',#133,.T.);
#93=FACE_OUTER_BOUND('',#134,.T.);
#94=FACE_OUTER_BOUND('',#135,.T.);
#95=FACE_OUTER_BOUND('',#136,.T.);
#96=FACE_OUTER_BOUND('',#137,.T.);
#97=FACE_OUTER_BOUND('',#138,.T.);
#98=FACE_OUTER_BOUND('',#139,.T.);
#99=FACE_OUTER_BOUND('',#140,.T.);
#100=FACE_OUTER_BOUND('',#141,.T.);
#101=FACE_OUTER_BOUND('',#142,.T.);
#102=FACE_OUTER_BOUND('',#143,.T.);
#103=FACE_OUTER_BOUND('',#144,.T.);
#104=FACE_OUTER_BOUND('',#152,.T.);
#105=FACE_OUTER_BOUND('',#153,.T.);
#106=FACE_OUTER_BOUND('',#154,.T.);
#107=FACE_OUTER_BOUND('',#155,.T.);
#108=FACE_OUTER_BOUND('',#156,.T.);
#109=FACE_OUTER_BOUND('',#157,.T.);
#110=FACE_OUTER_BOUND('',#158,.T.);
#111=EDGE_LOOP('',(#447,#448,#449,#450));
#112=EDGE_LOOP('',(#451));
#113=EDGE_LOOP('',(#452));
#114=EDGE_LOOP('',(#453));
#115=EDGE_LOOP('',(#454));
#116=EDGE_LOOP('',(#455,#456,#457,#458));
#117=EDGE_LOOP('',(#459,#460,#461,#462));
#118=EDGE_LOOP('',(#463,#464,#465,#466));
#119=EDGE_LOOP('',(#467,#468,#469,#470));
#120=EDGE_LOOP('',(#471,#472,#473,#474));
#121=EDGE_LOOP('',(#475,#476,#477,#478));
#122=EDGE_LOOP('',(#479,#480,#481,#482));
#123=EDGE_LOOP('',(#483,#484,#485,#486));
#124=EDGE_LOOP('',(#487,#488,#489,#490));
#125=EDGE_LOOP('',(#491,#492,#493,#494));
#126=EDGE_LOOP('',(#495,#496,#497,#498));
#127=EDGE_LOOP('',(#499,#500,#501,#502));
#128=EDGE_LOOP('',(#503,#504,#505,#506));
#129=EDGE_LOOP('',(#507,#508,#509,#510));
#130=EDGE_LOOP('',(#511,#512,#513,#514));
#131=EDGE_LOOP('',(#515,#516,#517,#518));
#132=EDGE_LOOP('',(#519,#520,#521,#522));
#133=EDGE_LOOP('',(#523,#524,#525,#526));
#134=EDGE_LOOP('',(#527,#528,#529,#530));
#135=EDGE_LOOP('',(#531,#532,#533,#534));
#136=EDGE_LOOP('',(#535,#536,#537,#538));
#137=EDGE_LOOP('',(#539,#540,#541,#542));
#138=EDGE_LOOP('',(#543,#544,#545,#546));
#139=EDGE_LOOP('',(#547,#548,#549,#550));
#140=EDGE_LOOP('',(#551,#552,#553,#554));
#141=EDGE_LOOP('',(#555,#556,#557,#558));
#142=EDGE_LOOP('',(#559,#560,#561,#562));
#143=EDGE_LOOP('',(#563,#564,#565,#566));
#144=EDGE_LOOP('',(#567,#568,#569,#570));
#145=EDGE_LOOP('',(#571));
#146=EDGE_LOOP('',(#572));
#147=EDGE_LOOP('',(#573));
#148=EDGE_LOOP('',(#574));
#149=EDGE_LOOP('',(#575,#576,#577,#578,#579,#580,#581,#582));
#150=EDGE_LOOP('',(#583,#584,#585,#586,#587,#588,#589,#590));
#151=EDGE_LOOP('',(#591,#592,#593,#594,#595,#596,#597,#598));
#152=EDGE_LOOP('',(#599,#600,#601,#602,#603,#604,#605,#606));
#153=EDGE_LOOP('',(#607,#608,#609,#610,#611,#612,#613,#614));
#154=EDGE_LOOP('',(#615,#616,#617,#618,#619,#620,#621,#622));
#155=EDGE_LOOP('',(#623,#624,#625,#626));
#156=EDGE_LOOP('',(#627,#628,#629,#630));
#157=EDGE_LOOP('',(#631,#632,#633,#634));
#158=EDGE_LOOP('',(#635,#636,#637,#638));
#159=LINE('',#988,#223);
#160=LINE('',#990,#224);
#161=LINE('',#992,#225);
#162=LINE('',#993,#226);
#163=LINE('',#1004,#227);
#164=LINE('',#1006,#228);
#165=LINE('',#1007,#229);
#166=LINE('',#1010,#230);
#167=LINE('',#1011,#231);
#168=LINE('',#1014,#232);
#169=LINE('',#1015,#233);
#170=LINE('',#1017,#234);
#171=LINE('',#1021,#235);
#172=LINE('',#1023,#236);
#173=LINE('',#1025,#237);
#174=LINE('',#1026,#238);
#175=LINE('',#1032,#239);
#176=LINE('',#1035,#240);
#177=LINE('',#1037,#241);
#178=LINE('',#1038,#242);
#179=LINE('',#1044,#243);
#180=LINE('',#1047,#244);
#181=LINE('',#1049,#245);
#182=LINE('',#1050,#246);
#183=LINE('',#1056,#247);
#184=LINE('',#1059,#248);
#185=LINE('',#1061,#249);
#186=LINE('',#1062,#250);
#187=LINE('',#1069,#251);
#188=LINE('',#1071,#252);
#189=LINE('',#1073,#253);
#190=LINE('',#1074,#254);
#191=LINE('',#1080,#255);
#192=LINE('',#1083,#256);
#193=LINE('',#1085,#257);
#194=LINE('',#1086,#258);
#195=LINE('',#1092,#259);
#196=LINE('',#1095,#260);
#197=LINE('',#1097,#261);
#198=LINE('',#1098,#262);
#199=LINE('',#1104,#263);
#200=LINE('',#1107,#264);
#201=LINE('',#1109,#265);
#202=LINE('',#1110,#266);
#203=LINE('',#1117,#267);
#204=LINE('',#1119,#268);
#205=LINE('',#1121,#269);
#206=LINE('',#1122,#270);
#207=LINE('',#1128,#271);
#208=LINE('',#1131,#272);
#209=LINE('',#1133,#273);
#210=LINE('',#1134,#274);
#211=LINE('',#1140,#275);
#212=LINE('',#1143,#276);
#213=LINE('',#1145,#277);
#214=LINE('',#1146,#278);
#215=LINE('',#1152,#279);
#216=LINE('',#1155,#280);
#217=LINE('',#1157,#281);
#218=LINE('',#1158,#282);
#219=LINE('',#1175,#283);
#220=LINE('',#1177,#284);
#221=LINE('',#1179,#285);
#222=LINE('',#1181,#286);
#223=VECTOR('',#784,10.);
#224=VECTOR('',#785,10.);
#225=VECTOR('',#786,10.);
#226=VECTOR('',#787,10.);
#227=VECTOR('',#798,10.);
#228=VECTOR('',#799,10.);
#229=VECTOR('',#800,10.);
#230=VECTOR('',#803,10.);
#231=VECTOR('',#804,10.);
#232=VECTOR('',#807,10.);
#233=VECTOR('',#808,10.);
#234=VECTOR('',#811,10.);
#235=VECTOR('',#814,10.);
#236=VECTOR('',#815,10.);
#237=VECTOR('',#816,10.);
#238=VECTOR('',#817,10.);
#239=VECTOR('',#824,10.);
#240=VECTOR('',#827,10.);
#241=VECTOR('',#828,10.);
#242=VECTOR('',#829,10.);
#243=VECTOR('',#836,10.);
#244=VECTOR('',#839,10.);
#245=VECTOR('',#840,10.);
#246=VECTOR('',#841,10.);
#247=VECTOR('',#848,10.);
#248=VECTOR('',#851,10.);
#249=VECTOR('',#852,10.);
#250=VECTOR('',#853,10.);
#251=VECTOR('',#862,10.);
#252=VECTOR('',#863,10.);
#253=VECTOR('',#864,10.);
#254=VECTOR('',#865,10.);
#255=VECTOR('',#872,10.);
#256=VECTOR('',#875,10.);
#257=VECTOR('',#876,10.);
#258=VECTOR('',#877,10.);
#259=VECTOR('',#884,10.);
#260=VECTOR('',#887,10.);
#261=VECTOR('',#888,10.);
#262=VECTOR('',#889,10.);
#263=VECTOR('',#896,10.);
#264=VECTOR('',#899,10.);
#265=VECTOR('',#900,10.);
#266=VECTOR('',#901,10.);
#267=VECTOR('',#910,10.);
#268=VECTOR('',#911,10.);
#269=VECTOR('',#912,10.);
#270=VECTOR('',#913,10.);
#271=VECTOR('',#920,10.);
#272=VECTOR('',#923,10.);
#273=VECTOR('',#924,10.);
#274=VECTOR('',#925,10.);
#275=VECTOR('',#932,10.);
#276=VECTOR('',#935,10.);
#277=VECTOR('',#936,10.);
#278=VECTOR('',#937,10.);
#279=VECTOR('',#944,10.);
#280=VECTOR('',#947,10.);
#281=VECTOR('',#948,10.);
#282=VECTOR('',#949,10.);
#283=VECTOR('',#974,1.45);
#284=VECTOR('',#977,1.45);
#285=VECTOR('',#980,1.45);
#286=VECTOR('',#983,1.45);
#287=VERTEX_POINT('',#986);
#288=VERTEX_POINT('',#987);
#289=VERTEX_POINT('',#989);
#290=VERTEX_POINT('',#991);
#291=VERTEX_POINT('',#994);
#292=VERTEX_POINT('',#996);
#293=VERTEX_POINT('',#998);
#294=VERTEX_POINT('',#1000);
#295=VERTEX_POINT('',#1003);
#296=VERTEX_POINT('',#1005);
#297=VERTEX_POINT('',#1009);
#298=VERTEX_POINT('',#1013);
#299=VERTEX_POINT('',#1019);
#300=VERTEX_POINT('',#1020);
#301=VERTEX_POINT('',#1022);
#302=VERTEX_POINT('',#1024);
#303=VERTEX_POINT('',#1028);
#304=VERTEX_POINT('',#1030);
#305=VERTEX_POINT('',#1034);
#306=VERTEX_POINT('',#1036);
#307=VERTEX_POINT('',#1040);
#308=VERTEX_POINT('',#1042);
#309=VERTEX_POINT('',#1046);
#310=VERTEX_POINT('',#1048);
#311=VERTEX_POINT('',#1052);
#312=VERTEX_POINT('',#1054);
#313=VERTEX_POINT('',#1058);
#314=VERTEX_POINT('',#1060);
#315=VERTEX_POINT('',#1067);
#316=VERTEX_POINT('',#1068);
#317=VERTEX_POINT('',#1070);
#318=VERTEX_POINT('',#1072);
#319=VERTEX_POINT('',#1076);
#320=VERTEX_POINT('',#1078);
#321=VERTEX_POINT('',#1082);
#322=VERTEX_POINT('',#1084);
#323=VERTEX_POINT('',#1088);
#324=VERTEX_POINT('',#1090);
#325=VERTEX_POINT('',#1094);
#326=VERTEX_POINT('',#1096);
#327=VERTEX_POINT('',#1100);
#328=VERTEX_POINT('',#1102);
#329=VERTEX_POINT('',#1106);
#330=VERTEX_POINT('',#1108);
#331=VERTEX_POINT('',#1115);
#332=VERTEX_POINT('',#1116);
#333=VERTEX_POINT('',#1118);
#334=VERTEX_POINT('',#1120);
#335=VERTEX_POINT('',#1124);
#336=VERTEX_POINT('',#1126);
#337=VERTEX_POINT('',#1130);
#338=VERTEX_POINT('',#1132);
#339=VERTEX_POINT('',#1136);
#340=VERTEX_POINT('',#1138);
#341=VERTEX_POINT('',#1142);
#342=VERTEX_POINT('',#1144);
#343=VERTEX_POINT('',#1148);
#344=VERTEX_POINT('',#1150);
#345=VERTEX_POINT('',#1154);
#346=VERTEX_POINT('',#1156);
#347=VERTEX_POINT('',#1163);
#348=VERTEX_POINT('',#1165);
#349=VERTEX_POINT('',#1167);
#350=VERTEX_POINT('',#1169);
#351=EDGE_CURVE('',#287,#288,#159,.T.);
#352=EDGE_CURVE('',#288,#289,#160,.T.);
#353=EDGE_CURVE('',#289,#290,#161,.T.);
#354=EDGE_CURVE('',#290,#287,#162,.T.);
#355=EDGE_CURVE('',#291,#291,#42,.T.);
#356=EDGE_CURVE('',#292,#292,#43,.T.);
#357=EDGE_CURVE('',#293,#293,#44,.T.);
#358=EDGE_CURVE('',#294,#294,#45,.T.);
#359=EDGE_CURVE('',#295,#290,#163,.T.);
#360=EDGE_CURVE('',#295,#296,#164,.T.);
#361=EDGE_CURVE('',#296,#287,#165,.T.);
#362=EDGE_CURVE('',#297,#289,#166,.T.);
#363=EDGE_CURVE('',#297,#295,#167,.T.);
#364=EDGE_CURVE('',#298,#288,#168,.T.);
#365=EDGE_CURVE('',#298,#297,#169,.T.);
#366=EDGE_CURVE('',#298,#296,#170,.T.);
#367=EDGE_CURVE('',#299,#300,#171,.T.);
#368=EDGE_CURVE('',#299,#301,#172,.T.);
#369=EDGE_CURVE('',#302,#301,#173,.T.);
#370=EDGE_CURVE('',#300,#302,#174,.T.);
#371=EDGE_CURVE('',#300,#303,#46,.T.);
#372=EDGE_CURVE('',#304,#302,#47,.T.);
#373=EDGE_CURVE('',#303,#304,#175,.T.);
#374=EDGE_CURVE('',#303,#305,#176,.T.);
#375=EDGE_CURVE('',#306,#304,#177,.T.);
#376=EDGE_CURVE('',#305,#306,#178,.T.);
#377=EDGE_CURVE('',#305,#307,#48,.T.);
#378=EDGE_CURVE('',#308,#306,#49,.T.);
#379=EDGE_CURVE('',#307,#308,#179,.T.);
#380=EDGE_CURVE('',#307,#309,#180,.T.);
#381=EDGE_CURVE('',#310,#308,#181,.T.);
#382=EDGE_CURVE('',#309,#310,#182,.T.);
#383=EDGE_CURVE('',#309,#311,#50,.T.);
#384=EDGE_CURVE('',#312,#310,#51,.T.);
#385=EDGE_CURVE('',#311,#312,#183,.T.);
#386=EDGE_CURVE('',#311,#313,#184,.T.);
#387=EDGE_CURVE('',#314,#312,#185,.T.);
#388=EDGE_CURVE('',#313,#314,#186,.T.);
#389=EDGE_CURVE('',#313,#299,#52,.T.);
#390=EDGE_CURVE('',#301,#314,#53,.T.);
#391=EDGE_CURVE('',#315,#316,#187,.T.);
#392=EDGE_CURVE('',#315,#317,#188,.T.);
#393=EDGE_CURVE('',#318,#317,#189,.T.);
#394=EDGE_CURVE('',#316,#318,#190,.T.);
#395=EDGE_CURVE('',#316,#319,#54,.T.);
#396=EDGE_CURVE('',#320,#318,#55,.T.);
#397=EDGE_CURVE('',#319,#320,#191,.T.);
#398=EDGE_CURVE('',#319,#321,#192,.T.);
#399=EDGE_CURVE('',#322,#320,#193,.T.);
#400=EDGE_CURVE('',#321,#322,#194,.T.);
#401=EDGE_CURVE('',#321,#323,#56,.T.);
#402=EDGE_CURVE('',#324,#322,#57,.T.);
#403=EDGE_CURVE('',#323,#324,#195,.T.);
#404=EDGE_CURVE('',#323,#325,#196,.T.);
#405=EDGE_CURVE('',#326,#324,#197,.T.);
#406=EDGE_CURVE('',#325,#326,#198,.T.);
#407=EDGE_CURVE('',#325,#327,#58,.T.);
#408=EDGE_CURVE('',#328,#326,#59,.T.);
#409=EDGE_CURVE('',#327,#328,#199,.T.);
#410=EDGE_CURVE('',#327,#329,#200,.T.);
#411=EDGE_CURVE('',#330,#328,#201,.T.);
#412=EDGE_CURVE('',#329,#330,#202,.T.);
#413=EDGE_CURVE('',#329,#315,#60,.T.);
#414=EDGE_CURVE('',#317,#330,#61,.T.);
#415=EDGE_CURVE('',#331,#332,#203,.T.);
#416=EDGE_CURVE('',#331,#333,#204,.T.);
#417=EDGE_CURVE('',#334,#333,#205,.T.);
#418=EDGE_CURVE('',#332,#334,#206,.T.);
#419=EDGE_CURVE('',#332,#335,#62,.T.);
#420=EDGE_CURVE('',#336,#334,#63,.T.);
#421=EDGE_CURVE('',#335,#336,#207,.T.);
#422=EDGE_CURVE('',#335,#337,#208,.T.);
#423=EDGE_CURVE('',#338,#336,#209,.T.);
#424=EDGE_CURVE('',#337,#338,#210,.T.);
#425=EDGE_CURVE('',#337,#339,#64,.T.);
#426=EDGE_CURVE('',#340,#338,#65,.T.);
#427=EDGE_CURVE('',#339,#340,#211,.T.);
#428=EDGE_CURVE('',#339,#341,#212,.T.);
#429=EDGE_CURVE('',#342,#340,#213,.T.);
#430=EDGE_CURVE('',#341,#342,#214,.T.);
#431=EDGE_CURVE('',#341,#343,#66,.T.);
#432=EDGE_CURVE('',#344,#342,#67,.T.);
#433=EDGE_CURVE('',#343,#344,#215,.T.);
#434=EDGE_CURVE('',#343,#345,#216,.T.);
#435=EDGE_CURVE('',#346,#344,#217,.T.);
#436=EDGE_CURVE('',#345,#346,#218,.T.);
#437=EDGE_CURVE('',#345,#331,#68,.T.);
#438=EDGE_CURVE('',#333,#346,#69,.T.);
#439=EDGE_CURVE('',#347,#347,#70,.T.);
#440=EDGE_CURVE('',#348,#348,#71,.T.);
#441=EDGE_CURVE('',#349,#349,#72,.T.);
#442=EDGE_CURVE('',#350,#350,#73,.T.);
#443=EDGE_CURVE('',#350,#294,#219,.T.);
#444=EDGE_CURVE('',#349,#293,#220,.T.);
#445=EDGE_CURVE('',#348,#292,#221,.T.);
#446=EDGE_CURVE('',#347,#291,#222,.T.);
#447=ORIENTED_EDGE('',*,*,#351,.T.);
#448=ORIENTED_EDGE('',*,*,#352,.T.);
#449=ORIENTED_EDGE('',*,*,#353,.T.);
#450=ORIENTED_EDGE('',*,*,#354,.T.);
#451=ORIENTED_EDGE('',*,*,#355,.T.);
#452=ORIENTED_EDGE('',*,*,#356,.T.);
#453=ORIENTED_EDGE('',*,*,#357,.T.);
#454=ORIENTED_EDGE('',*,*,#358,.T.);
#455=ORIENTED_EDGE('',*,*,#359,.F.);
#456=ORIENTED_EDGE('',*,*,#360,.T.);
#457=ORIENTED_EDGE('',*,*,#361,.T.);
#458=ORIENTED_EDGE('',*,*,#354,.F.);
#459=ORIENTED_EDGE('',*,*,#362,.F.);
#460=ORIENTED_EDGE('',*,*,#363,.T.);
#461=ORIENTED_EDGE('',*,*,#359,.T.);
#462=ORIENTED_EDGE('',*,*,#353,.F.);
#463=ORIENTED_EDGE('',*,*,#364,.F.);
#464=ORIENTED_EDGE('',*,*,#365,.T.);
#465=ORIENTED_EDGE('',*,*,#362,.T.);
#466=ORIENTED_EDGE('',*,*,#352,.F.);
#467=ORIENTED_EDGE('',*,*,#361,.F.);
#468=ORIENTED_EDGE('',*,*,#366,.F.);
#469=ORIENTED_EDGE('',*,*,#364,.T.);
#470=ORIENTED_EDGE('',*,*,#351,.F.);
#471=ORIENTED_EDGE('',*,*,#367,.F.);
#472=ORIENTED_EDGE('',*,*,#368,.T.);
#473=ORIENTED_EDGE('',*,*,#369,.F.);
#474=ORIENTED_EDGE('',*,*,#370,.F.);
#475=ORIENTED_EDGE('',*,*,#371,.F.);
#476=ORIENTED_EDGE('',*,*,#370,.T.);
#477=ORIENTED_EDGE('',*,*,#372,.F.);
#478=ORIENTED_EDGE('',*,*,#373,.F.);
#479=ORIENTED_EDGE('',*,*,#374,.F.);
#480=ORIENTED_EDGE('',*,*,#373,.T.);
#481=ORIENTED_EDGE('',*,*,#375,.F.);
#482=ORIENTED_EDGE('',*,*,#376,.F.);
#483=ORIENTED_EDGE('',*,*,#377,.F.);
#484=ORIENTED_EDGE('',*,*,#376,.T.);
#485=ORIENTED_EDGE('',*,*,#378,.F.);
#486=ORIENTED_EDGE('',*,*,#379,.F.);
#487=ORIENTED_EDGE('',*,*,#380,.F.);
#488=ORIENTED_EDGE('',*,*,#379,.T.);
#489=ORIENTED_EDGE('',*,*,#381,.F.);
#490=ORIENTED_EDGE('',*,*,#382,.F.);
#491=ORIENTED_EDGE('',*,*,#383,.F.);
#492=ORIENTED_EDGE('',*,*,#382,.T.);
#493=ORIENTED_EDGE('',*,*,#384,.F.);
#494=ORIENTED_EDGE('',*,*,#385,.F.);
#495=ORIENTED_EDGE('',*,*,#386,.F.);
#496=ORIENTED_EDGE('',*,*,#385,.T.);
#497=ORIENTED_EDGE('',*,*,#387,.F.);
#498=ORIENTED_EDGE('',*,*,#388,.F.);
#499=ORIENTED_EDGE('',*,*,#389,.F.);
#500=ORIENTED_EDGE('',*,*,#388,.T.);
#501=ORIENTED_EDGE('',*,*,#390,.F.);
#502=ORIENTED_EDGE('',*,*,#368,.F.);
#503=ORIENTED_EDGE('',*,*,#391,.F.);
#504=ORIENTED_EDGE('',*,*,#392,.T.);
#505=ORIENTED_EDGE('',*,*,#393,.F.);
#506=ORIENTED_EDGE('',*,*,#394,.F.);
#507=ORIENTED_EDGE('',*,*,#395,.F.);
#508=ORIENTED_EDGE('',*,*,#394,.T.);
#509=ORIENTED_EDGE('',*,*,#396,.F.);
#510=ORIENTED_EDGE('',*,*,#397,.F.);
#511=ORIENTED_EDGE('',*,*,#398,.F.);
#512=ORIENTED_EDGE('',*,*,#397,.T.);
#513=ORIENTED_EDGE('',*,*,#399,.F.);
#514=ORIENTED_EDGE('',*,*,#400,.F.);
#515=ORIENTED_EDGE('',*,*,#401,.F.);
#516=ORIENTED_EDGE('',*,*,#400,.T.);
#517=ORIENTED_EDGE('',*,*,#402,.F.);
#518=ORIENTED_EDGE('',*,*,#403,.F.);
#519=ORIENTED_EDGE('',*,*,#404,.F.);
#520=ORIENTED_EDGE('',*,*,#403,.T.);
#521=ORIENTED_EDGE('',*,*,#405,.F.);
#522=ORIENTED_EDGE('',*,*,#406,.F.);
#523=ORIENTED_EDGE('',*,*,#407,.F.);
#524=ORIENTED_EDGE('',*,*,#406,.T.);
#525=ORIENTED_EDGE('',*,*,#408,.F.);
#526=ORIENTED_EDGE('',*,*,#409,.F.);
#527=ORIENTED_EDGE('',*,*,#410,.F.);
#528=ORIENTED_EDGE('',*,*,#409,.T.);
#529=ORIENTED_EDGE('',*,*,#411,.F.);
#530=ORIENTED_EDGE('',*,*,#412,.F.);
#531=ORIENTED_EDGE('',*,*,#413,.F.);
#532=ORIENTED_EDGE('',*,*,#412,.T.);
#533=ORIENTED_EDGE('',*,*,#414,.F.);
#534=ORIENTED_EDGE('',*,*,#392,.F.);
#535=ORIENTED_EDGE('',*,*,#415,.F.);
#536=ORIENTED_EDGE('',*,*,#416,.T.);
#537=ORIENTED_EDGE('',*,*,#417,.F.);
#538=ORIENTED_EDGE('',*,*,#418,.F.);
#539=ORIENTED_EDGE('',*,*,#419,.F.);
#540=ORIENTED_EDGE('',*,*,#418,.T.);
#541=ORIENTED_EDGE('',*,*,#420,.F.);
#542=ORIENTED_EDGE('',*,*,#421,.F.);
#543=ORIENTED_EDGE('',*,*,#422,.F.);
#544=ORIENTED_EDGE('',*,*,#421,.T.);
#545=ORIENTED_EDGE('',*,*,#423,.F.);
#546=ORIENTED_EDGE('',*,*,#424,.F.);
#547=ORIENTED_EDGE('',*,*,#425,.F.);
#548=ORIENTED_EDGE('',*,*,#424,.T.);
#549=ORIENTED_EDGE('',*,*,#426,.F.);
#550=ORIENTED_EDGE('',*,*,#427,.F.);
#551=ORIENTED_EDGE('',*,*,#428,.F.);
#552=ORIENTED_EDGE('',*,*,#427,.T.);
#553=ORIENTED_EDGE('',*,*,#429,.F.);
#554=ORIENTED_EDGE('',*,*,#430,.F.);
#555=ORIENTED_EDGE('',*,*,#431,.F.);
#556=ORIENTED_EDGE('',*,*,#430,.T.);
#557=ORIENTED_EDGE('',*,*,#432,.F.);
#558=ORIENTED_EDGE('',*,*,#433,.F.);
#559=ORIENTED_EDGE('',*,*,#434,.F.);
#560=ORIENTED_EDGE('',*,*,#433,.T.);
#561=ORIENTED_EDGE('',*,*,#435,.F.);
#562=ORIENTED_EDGE('',*,*,#436,.F.);
#563=ORIENTED_EDGE('',*,*,#437,.F.);
#564=ORIENTED_EDGE('',*,*,#436,.T.);
#565=ORIENTED_EDGE('',*,*,#438,.F.);
#566=ORIENTED_EDGE('',*,*,#416,.F.);
#567=ORIENTED_EDGE('',*,*,#363,.F.);
#568=ORIENTED_EDGE('',*,*,#365,.F.);
#569=ORIENTED_EDGE('',*,*,#366,.T.);
#570=ORIENTED_EDGE('',*,*,#360,.F.);
#571=ORIENTED_EDGE('',*,*,#439,.T.);
#572=ORIENTED_EDGE('',*,*,#440,.T.);
#573=ORIENTED_EDGE('',*,*,#441,.T.);
#574=ORIENTED_EDGE('',*,*,#442,.T.);
#575=ORIENTED_EDGE('',*,*,#438,.T.);
#576=ORIENTED_EDGE('',*,*,#435,.T.);
#577=ORIENTED_EDGE('',*,*,#432,.T.);
#578=ORIENTED_EDGE('',*,*,#429,.T.);
#579=ORIENTED_EDGE('',*,*,#426,.T.);
#580=ORIENTED_EDGE('',*,*,#423,.T.);
#581=ORIENTED_EDGE('',*,*,#420,.T.);
#582=ORIENTED_EDGE('',*,*,#417,.T.);
#583=ORIENTED_EDGE('',*,*,#414,.T.);
#584=ORIENTED_EDGE('',*,*,#411,.T.);
#585=ORIENTED_EDGE('',*,*,#408,.T.);
#586=ORIENTED_EDGE('',*,*,#405,.T.);
#587=ORIENTED_EDGE('',*,*,#402,.T.);
#588=ORIENTED_EDGE('',*,*,#399,.T.);
#589=ORIENTED_EDGE('',*,*,#396,.T.);
#590=ORIENTED_EDGE('',*,*,#393,.T.);
#591=ORIENTED_EDGE('',*,*,#390,.T.);
#592=ORIENTED_EDGE('',*,*,#387,.T.);
#593=ORIENTED_EDGE('',*,*,#384,.T.);
#594=ORIENTED_EDGE('',*,*,#381,.T.);
#595=ORIENTED_EDGE('',*,*,#378,.T.);
#596=ORIENTED_EDGE('',*,*,#375,.T.);
#597=ORIENTED_EDGE('',*,*,#372,.T.);
#598=ORIENTED_EDGE('',*,*,#369,.T.);
#599=ORIENTED_EDGE('',*,*,#415,.T.);
#600=ORIENTED_EDGE('',*,*,#419,.T.);
#601=ORIENTED_EDGE('',*,*,#422,.T.);
#602=ORIENTED_EDGE('',*,*,#425,.T.);
#603=ORIENTED_EDGE('',*,*,#428,.T.);
#604=ORIENTED_EDGE('',*,*,#431,.T.);
#605=ORIENTED_EDGE('',*,*,#434,.T.);
#606=ORIENTED_EDGE('',*,*,#437,.T.);
#607=ORIENTED_EDGE('',*,*,#391,.T.);
#608=ORIENTED_EDGE('',*,*,#395,.T.);
#609=ORIENTED_EDGE('',*,*,#398,.T.);
#610=ORIENTED_EDGE('',*,*,#401,.T.);
#611=ORIENTED_EDGE('',*,*,#404,.T.);
#612=ORIENTED_EDGE('',*,*,#407,.T.);
#613=ORIENTED_EDGE('',*,*,#410,.T.);
#614=ORIENTED_EDGE('',*,*,#413,.T.);
#615=ORIENTED_EDGE('',*,*,#367,.T.);
#616=ORIENTED_EDGE('',*,*,#371,.T.);
#617=ORIENTED_EDGE('',*,*,#374,.T.);
#618=ORIENTED_EDGE('',*,*,#377,.T.);
#619=ORIENTED_EDGE('',*,*,#380,.T.);
#620=ORIENTED_EDGE('',*,*,#383,.T.);
#621=ORIENTED_EDGE('',*,*,#386,.T.);
#622=ORIENTED_EDGE('',*,*,#389,.T.);
#623=ORIENTED_EDGE('',*,*,#442,.F.);
#624=ORIENTED_EDGE('',*,*,#443,.T.);
#625=ORIENTED_EDGE('',*,*,#358,.F.);
#626=ORIENTED_EDGE('',*,*,#443,.F.);
#627=ORIENTED_EDGE('',*,*,#441,.F.);
#628=ORIENTED_EDGE('',*,*,#444,.T.);
#629=ORIENTED_EDGE('',*,*,#357,.F.);
#630=ORIENTED_EDGE('',*,*,#444,.F.);
#631=ORIENTED_EDGE('',*,*,#440,.F.);
#632=ORIENTED_EDGE('',*,*,#445,.T.);
#633=ORIENTED_EDGE('',*,*,#356,.F.);
#634=ORIENTED_EDGE('',*,*,#445,.F.);
#635=ORIENTED_EDGE('',*,*,#439,.F.);
#636=ORIENTED_EDGE('',*,*,#446,.T.);
#637=ORIENTED_EDGE('',*,*,#355,.F.);
#638=ORIENTED_EDGE('',*,*,#446,.F.);
#639=PLANE('',#711);
#640=PLANE('',#716);
#641=PLANE('',#717);
#642=PLANE('',#718);
#643=PLANE('',#719);
#644=PLANE('',#720);
#645=PLANE('',#724);
#646=PLANE('',#728);
#647=PLANE('',#732);
#648=PLANE('',#736);
#649=PLANE('',#740);
#650=PLANE('',#744);
#651=PLANE('',#748);
#652=PLANE('',#752);
#653=PLANE('',#756);
#654=PLANE('',#760);
#655=PLANE('',#764);
#656=PLANE('',#768);
#657=PLANE('',#773);
#658=PLANE('',#774);
#659=PLANE('',#775);
#660=ADVANCED_FACE('',(#74,#31,#32,#33,#34),#639,.F.);
#661=ADVANCED_FACE('',(#75),#640,.T.);
#662=ADVANCED_FACE('',(#76),#641,.T.);
#663=ADVANCED_FACE('',(#77),#642,.T.);
#664=ADVANCED_FACE('',(#78),#643,.T.);
#665=ADVANCED_FACE('',(#79),#644,.T.);
#666=ADVANCED_FACE('',(#80),#15,.F.);
#667=ADVANCED_FACE('',(#81),#645,.T.);
#668=ADVANCED_FACE('',(#82),#16,.F.);
#669=ADVANCED_FACE('',(#83),#646,.T.);
#670=ADVANCED_FACE('',(#84),#17,.F.);
#671=ADVANCED_FACE('',(#85),#647,.T.);
#672=ADVANCED_FACE('',(#86),#18,.F.);
#673=ADVANCED_FACE('',(#87),#648,.T.);
#674=ADVANCED_FACE('',(#88),#19,.F.);
#675=ADVANCED_FACE('',(#89),#649,.T.);
#676=ADVANCED_FACE('',(#90),#20,.F.);
#677=ADVANCED_FACE('',(#91),#650,.T.);
#678=ADVANCED_FACE('',(#92),#21,.F.);
#679=ADVANCED_FACE('',(#93),#651,.T.);
#680=ADVANCED_FACE('',(#94),#22,.F.);
#681=ADVANCED_FACE('',(#95),#652,.T.);
#682=ADVANCED_FACE('',(#96),#23,.F.);
#683=ADVANCED_FACE('',(#97),#653,.T.);
#684=ADVANCED_FACE('',(#98),#24,.F.);
#685=ADVANCED_FACE('',(#99),#654,.T.);
#686=ADVANCED_FACE('',(#100),#25,.F.);
#687=ADVANCED_FACE('',(#101),#655,.T.);
#688=ADVANCED_FACE('',(#102),#26,.F.);
#689=ADVANCED_FACE('',(#103,#35,#36,#37,#38,#39,#40,#41),#656,.T.);
#690=ADVANCED_FACE('',(#104),#657,.T.);
#691=ADVANCED_FACE('',(#105),#658,.T.);
#692=ADVANCED_FACE('',(#106),#659,.T.);
#693=ADVANCED_FACE('',(#107),#27,.F.);
#694=ADVANCED_FACE('',(#108),#28,.F.);
#695=ADVANCED_FACE('',(#109),#29,.F.);
#696=ADVANCED_FACE('',(#110),#30,.F.);
#697=CLOSED_SHELL('',(#660,#661,#662,#663,#664,#665,#666,#667,#668,#669,
#670,#671,#672,#673,#674,#675,#676,#677,#678,#679,#680,#681,#682,#683,#684,
#685,#686,#687,#688,#689,#690,#691,#692,#693,#694,#695,#696));
#698=DERIVED_UNIT_ELEMENT(#700,1.);
#699=DERIVED_UNIT_ELEMENT(#1187,-3.);
#700=(
MASS_UNIT()
NAMED_UNIT(*)
SI_UNIT(.KILO.,.GRAM.)
);
#701=DERIVED_UNIT((#698,#699));
#702=MEASURE_REPRESENTATION_ITEM('density measure',
POSITIVE_RATIO_MEASURE(7850.),#701);
#703=PROPERTY_DEFINITION_REPRESENTATION(#708,#705);
#704=PROPERTY_DEFINITION_REPRESENTATION(#709,#706);
#705=REPRESENTATION('material name',(#707),#1184);
#706=REPRESENTATION('density',(#702),#1184);
#707=DESCRIPTIVE_REPRESENTATION_ITEM('Steel','Steel');
#708=PROPERTY_DEFINITION('material property','material name',#1194);
#709=PROPERTY_DEFINITION('material property','density of part',#1194);
#710=AXIS2_PLACEMENT_3D('',#984,#780,#781);
#711=AXIS2_PLACEMENT_3D('',#985,#782,#783);
#712=AXIS2_PLACEMENT_3D('',#995,#788,#789);
#713=AXIS2_PLACEMENT_3D('',#997,#790,#791);
#714=AXIS2_PLACEMENT_3D('',#999,#792,#793);
#715=AXIS2_PLACEMENT_3D('',#1001,#794,#795);
#716=AXIS2_PLACEMENT_3D('',#1002,#796,#797);
#717=AXIS2_PLACEMENT_3D('',#1008,#801,#802);
#718=AXIS2_PLACEMENT_3D('',#1012,#805,#806);
#719=AXIS2_PLACEMENT_3D('',#1016,#809,#810);
#720=AXIS2_PLACEMENT_3D('',#1018,#812,#813);
#721=AXIS2_PLACEMENT_3D('',#1027,#818,#819);
#722=AXIS2_PLACEMENT_3D('',#1029,#820,#821);
#723=AXIS2_PLACEMENT_3D('',#1031,#822,#823);
#724=AXIS2_PLACEMENT_3D('',#1033,#825,#826);
#725=AXIS2_PLACEMENT_3D('',#1039,#830,#831);
#726=AXIS2_PLACEMENT_3D('',#1041,#832,#833);
#727=AXIS2_PLACEMENT_3D('',#1043,#834,#835);
#728=AXIS2_PLACEMENT_3D('',#1045,#837,#838);
#729=AXIS2_PLACEMENT_3D('',#1051,#842,#843);
#730=AXIS2_PLACEMENT_3D('',#1053,#844,#845);
#731=AXIS2_PLACEMENT_3D('',#1055,#846,#847);
#732=AXIS2_PLACEMENT_3D('',#1057,#849,#850);
#733=AXIS2_PLACEMENT_3D('',#1063,#854,#855);
#734=AXIS2_PLACEMENT_3D('',#1064,#856,#857);
#735=AXIS2_PLACEMENT_3D('',#1065,#858,#859);
#736=AXIS2_PLACEMENT_3D('',#1066,#860,#861);
#737=AXIS2_PLACEMENT_3D('',#1075,#866,#867);
#738=AXIS2_PLACEMENT_3D('',#1077,#868,#869);
#739=AXIS2_PLACEMENT_3D('',#1079,#870,#871);
#740=AXIS2_PLACEMENT_3D('',#1081,#873,#874);
#741=AXIS2_PLACEMENT_3D('',#1087,#878,#879);
#742=AXIS2_PLACEMENT_3D('',#1089,#880,#881);
#743=AXIS2_PLACEMENT_3D('',#1091,#882,#883);
#744=AXIS2_PLACEMENT_3D('',#1093,#885,#886);
#745=AXIS2_PLACEMENT_3D('',#1099,#890,#891);
#746=AXIS2_PLACEMENT_3D('',#1101,#892,#893);
#747=AXIS2_PLACEMENT_3D('',#1103,#894,#895);
#748=AXIS2_PLACEMENT_3D('',#1105,#897,#898);
#749=AXIS2_PLACEMENT_3D('',#1111,#902,#903);
#750=AXIS2_PLACEMENT_3D('',#1112,#904,#905);
#751=AXIS2_PLACEMENT_3D('',#1113,#906,#907);
#752=AXIS2_PLACEMENT_3D('',#1114,#908,#909);
#753=AXIS2_PLACEMENT_3D('',#1123,#914,#915);
#754=AXIS2_PLACEMENT_3D('',#1125,#916,#917);
#755=AXIS2_PLACEMENT_3D('',#1127,#918,#919);
#756=AXIS2_PLACEMENT_3D('',#1129,#921,#922);
#757=AXIS2_PLACEMENT_3D('',#1135,#926,#927);
#758=AXIS2_PLACEMENT_3D('',#1137,#928,#929);
#759=AXIS2_PLACEMENT_3D('',#1139,#930,#931);
#760=AXIS2_PLACEMENT_3D('',#1141,#933,#934);
#761=AXIS2_PLACEMENT_3D('',#1147,#938,#939);
#762=AXIS2_PLACEMENT_3D('',#1149,#940,#941);
#763=AXIS2_PLACEMENT_3D('',#1151,#942,#943);
#764=AXIS2_PLACEMENT_3D('',#1153,#945,#946);
#765=AXIS2_PLACEMENT_3D('',#1159,#950,#951);
#766=AXIS2_PLACEMENT_3D('',#1160,#952,#953);
#767=AXIS2_PLACEMENT_3D('',#1161,#954,#955);
#768=AXIS2_PLACEMENT_3D('',#1162,#956,#957);
#769=AXIS2_PLACEMENT_3D('',#1164,#958,#959);
#770=AXIS2_PLACEMENT_3D('',#1166,#960,#961);
#771=AXIS2_PLACEMENT_3D('',#1168,#962,#963);
#772=AXIS2_PLACEMENT_3D('',#1170,#964,#965);
#773=AXIS2_PLACEMENT_3D('',#1171,#966,#967);
#774=AXIS2_PLACEMENT_3D('',#1172,#968,#969);
#775=AXIS2_PLACEMENT_3D('',#1173,#970,#971);
#776=AXIS2_PLACEMENT_3D('',#1174,#972,#973);
#777=AXIS2_PLACEMENT_3D('',#1176,#975,#976);
#778=AXIS2_PLACEMENT_3D('',#1178,#978,#979);
#779=AXIS2_PLACEMENT_3D('',#1180,#981,#982);
#780=DIRECTION('axis',(0.,0.,1.));
#781=DIRECTION('refdir',(1.,0.,0.));
#782=DIRECTION('center_axis',(0.,1.,0.));
#783=DIRECTION('ref_axis',(1.,0.,0.));
#784=DIRECTION('',(0.,0.,1.));
#785=DIRECTION('',(-1.,0.,0.));
#786=DIRECTION('',(0.,0.,-1.));
#787=DIRECTION('',(1.,0.,0.));
#788=DIRECTION('center_axis',(0.,1.,0.));
#789=DIRECTION('ref_axis',(1.,0.,0.));
#790=DIRECTION('center_axis',(0.,1.,0.));
#791=DIRECTION('ref_axis',(1.,0.,0.));
#792=DIRECTION('center_axis',(0.,1.,0.));
#793=DIRECTION('ref_axis',(1.,0.,0.));
#794=DIRECTION('center_axis',(0.,1.,0.));
#795=DIRECTION('ref_axis',(1.,0.,0.));
#796=DIRECTION('center_axis',(0.,0.,-1.));
#797=DIRECTION('ref_axis',(-1.,0.,0.));
#798=DIRECTION('',(0.,-1.,0.));
#799=DIRECTION('',(1.,0.,0.));
#800=DIRECTION('',(0.,-1.,0.));
#801=DIRECTION('center_axis',(-1.,0.,0.));
#802=DIRECTION('ref_axis',(0.,0.,1.));
#803=DIRECTION('',(0.,-1.,0.));
#804=DIRECTION('',(0.,0.,-1.));
#805=DIRECTION('center_axis',(0.,0.,1.));
#806=DIRECTION('ref_axis',(1.,0.,0.));
#807=DIRECTION('',(0.,-1.,0.));
#808=DIRECTION('',(-1.,0.,0.));
#809=DIRECTION('center_axis',(1.,0.,0.));
#810=DIRECTION('ref_axis',(0.,0.,-1.));
#811=DIRECTION('',(0.,0.,-1.));
#812=DIRECTION('center_axis',(1.,0.,0.));
#813=DIRECTION('ref_axis',(0.,0.,-1.));
#814=DIRECTION('',(0.,0.,1.));
#815=DIRECTION('',(0.,1.,0.));
#816=DIRECTION('',(0.,0.,-1.));
#817=DIRECTION('',(0.,1.,0.));
#818=DIRECTION('center_axis',(0.,1.,0.));
#819=DIRECTION('ref_axis',(-1.,0.,0.));
#820=DIRECTION('center_axis',(0.,1.,0.));
#821=DIRECTION('ref_axis',(-1.,0.,0.));
#822=DIRECTION('center_axis',(0.,-1.,0.));
#823=DIRECTION('ref_axis',(-1.,0.,0.));
#824=DIRECTION('',(0.,1.,0.));
#825=DIRECTION('center_axis',(0.,0.,-1.));
#826=DIRECTION('ref_axis',(-1.,0.,0.));
#827=DIRECTION('',(1.,0.,0.));
#828=DIRECTION('',(-1.,0.,0.));
#829=DIRECTION('',(0.,1.,0.));
#830=DIRECTION('center_axis',(0.,1.,0.));
#831=DIRECTION('ref_axis',(0.,0.,1.));
#832=DIRECTION('center_axis',(0.,1.,0.));
#833=DIRECTION('ref_axis',(0.,0.,1.));
#834=DIRECTION('center_axis',(0.,-1.,0.));
#835=DIRECTION('ref_axis',(0.,0.,1.));
#836=DIRECTION('',(0.,1.,0.));
#837=DIRECTION('center_axis',(-1.,0.,0.));
#838=DIRECTION('ref_axis',(0.,0.,1.));
#839=DIRECTION('',(0.,0.,-1.));
#840=DIRECTION('',(0.,0.,1.));
#841=DIRECTION('',(0.,1.,0.));
#842=DIRECTION('center_axis',(0.,1.,0.));
#843=DIRECTION('ref_axis',(1.,0.,0.));
#844=DIRECTION('center_axis',(0.,1.,0.));
#845=DIRECTION('ref_axis',(1.,0.,0.));
#846=DIRECTION('center_axis',(0.,-1.,0.));
#847=DIRECTION('ref_axis',(1.,0.,0.));
#848=DIRECTION('',(0.,1.,0.));
#849=DIRECTION('center_axis',(0.,0.,1.));
#850=DIRECTION('ref_axis',(1.,0.,0.));
#851=DIRECTION('',(-1.,0.,0.));
#852=DIRECTION('',(1.,0.,0.));
#853=DIRECTION('',(0.,1.,0.));
#854=DIRECTION('center_axis',(0.,1.,0.));
#855=DIRECTION('ref_axis',(0.,0.,-1.));
#856=DIRECTION('center_axis',(0.,1.,0.));
#857=DIRECTION('ref_axis',(0.,0.,-1.));
#858=DIRECTION('center_axis',(0.,-1.,0.));
#859=DIRECTION('ref_axis',(0.,0.,-1.));
#860=DIRECTION('center_axis',(1.,0.,0.));
#861=DIRECTION('ref_axis',(0.,0.,-1.));
#862=DIRECTION('',(0.,0.,1.));
#863=DIRECTION('',(0.,1.,0.));
#864=DIRECTION('',(0.,0.,-1.));
#865=DIRECTION('',(0.,1.,0.));
#866=DIRECTION('center_axis',(0.,1.,0.));
#867=DIRECTION('ref_axis',(-1.,0.,0.));
#868=DIRECTION('center_axis',(0.,1.,0.));
#869=DIRECTION('ref_axis',(-1.,0.,0.));
#870=DIRECTION('center_axis',(0.,-1.,0.));
#871=DIRECTION('ref_axis',(-1.,0.,0.));
#872=DIRECTION('',(0.,1.,0.));
#873=DIRECTION('center_axis',(0.,0.,-1.));
#874=DIRECTION('ref_axis',(-1.,0.,0.));
#875=DIRECTION('',(1.,0.,0.));
#876=DIRECTION('',(-1.,0.,0.));
#877=DIRECTION('',(0.,1.,0.));
#878=DIRECTION('center_axis',(0.,1.,0.));
#879=DIRECTION('ref_axis',(0.,0.,1.));
#880=DIRECTION('center_axis',(0.,1.,0.));
#881=DIRECTION('ref_axis',(0.,0.,1.));
#882=DIRECTION('center_axis',(0.,-1.,0.));
#883=DIRECTION('ref_axis',(0.,0.,1.));
#884=DIRECTION('',(0.,1.,0.));
#885=DIRECTION('center_axis',(-1.,0.,0.));
#886=DIRECTION('ref_axis',(0.,0.,1.));
#887=DIRECTION('',(0.,0.,-1.));
#888=DIRECTION('',(0.,0.,1.));
#889=DIRECTION('',(0.,1.,0.));
#890=DIRECTION('center_axis',(0.,1.,0.));
#891=DIRECTION('ref_axis',(1.,0.,0.));
#892=DIRECTION('center_axis',(0.,1.,0.));
#893=DIRECTION('ref_axis',(1.,0.,0.));
#894=DIRECTION('center_axis',(0.,-1.,0.));
#895=DIRECTION('ref_axis',(1.,0.,0.));
#896=DIRECTION('',(0.,1.,0.));
#897=DIRECTION('center_axis',(0.,0.,1.));
#898=DIRECTION('ref_axis',(1.,0.,0.));
#899=DIRECTION('',(-1.,0.,0.));
#900=DIRECTION('',(1.,0.,0.));
#901=DIRECTION('',(0.,1.,0.));
#902=DIRECTION('center_axis',(0.,1.,0.));
#903=DIRECTION('ref_axis',(0.,0.,-1.));
#904=DIRECTION('center_axis',(0.,1.,0.));
#905=DIRECTION('ref_axis',(0.,0.,-1.));
#906=DIRECTION('center_axis',(0.,-1.,0.));
#907=DIRECTION('ref_axis',(0.,0.,-1.));
#908=DIRECTION('center_axis',(1.,0.,0.));
#909=DIRECTION('ref_axis',(0.,0.,-1.));
#910=DIRECTION('',(0.,0.,1.));
#911=DIRECTION('',(0.,1.,0.));
#912=DIRECTION('',(0.,0.,-1.));
#913=DIRECTION('',(0.,1.,0.));
#914=DIRECTION('center_axis',(0.,1.,0.));
#915=DIRECTION('ref_axis',(-1.,0.,0.));
#916=DIRECTION('center_axis',(0.,1.,0.));
#917=DIRECTION('ref_axis',(-1.,0.,0.));
#918=DIRECTION('center_axis',(0.,-1.,0.));
#919=DIRECTION('ref_axis',(-1.,0.,0.));
#920=DIRECTION('',(0.,1.,0.));
#921=DIRECTION('center_axis',(0.,0.,-1.));
#922=DIRECTION('ref_axis',(-1.,0.,0.));
#923=DIRECTION('',(1.,0.,0.));
#924=DIRECTION('',(-1.,0.,0.));
#925=DIRECTION('',(0.,1.,0.));
#926=DIRECTION('center_axis',(0.,1.,0.));
#927=DIRECTION('ref_axis',(0.,0.,1.));
#928=DIRECTION('center_axis',(0.,1.,0.));
#929=DIRECTION('ref_axis',(0.,0.,1.));
#930=DIRECTION('center_axis',(0.,-1.,0.));
#931=DIRECTION('ref_axis',(0.,0.,1.));
#932=DIRECTION('',(0.,1.,0.));
#933=DIRECTION('center_axis',(-1.,0.,0.));
#934=DIRECTION('ref_axis',(0.,0.,1.));
#935=DIRECTION('',(0.,0.,-1.));
#936=DIRECTION('',(0.,0.,1.));
#937=DIRECTION('',(0.,1.,0.));
#938=DIRECTION('center_axis',(0.,1.,0.));
#939=DIRECTION('ref_axis',(1.,0.,0.));
#940=DIRECTION('center_axis',(0.,1.,0.));
#941=DIRECTION('ref_axis',(1.,0.,0.));
#942=DIRECTION('center_axis',(0.,-1.,0.));
#943=DIRECTION('ref_axis',(1.,0.,0.));
#944=DIRECTION('',(0.,1.,0.));
#945=DIRECTION('center_axis',(0.,0.,1.));
#946=DIRECTION('ref_axis',(1.,0.,0.));
#947=DIRECTION('',(-1.,0.,0.));
#948=DIRECTION('',(1.,0.,0.));
#949=DIRECTION('',(0.,1.,0.));
#950=DIRECTION('center_axis',(0.,1.,0.));
#951=DIRECTION('ref_axis',(0.,0.,-1.));
#952=DIRECTION('center_axis',(0.,1.,0.));
#953=DIRECTION('ref_axis',(0.,0.,-1.));
#954=DIRECTION('center_axis',(0.,-1.,0.));
#955=DIRECTION('ref_axis',(0.,0.,-1.));
#956=DIRECTION('center_axis',(0.,1.,0.));
#957=DIRECTION('ref_axis',(1.,0.,0.));
#958=DIRECTION('center_axis',(0.,-1.,0.));
#959=DIRECTION('ref_axis',(1.,0.,0.));
#960=DIRECTION('center_axis',(0.,-1.,0.));
#961=DIRECTION('ref_axis',(1.,0.,0.));
#962=DIRECTION('center_axis',(0.,-1.,0.));
#963=DIRECTION('ref_axis',(1.,0.,0.));
#964=DIRECTION('center_axis',(0.,-1.,0.));
#965=DIRECTION('ref_axis',(1.,0.,0.));
#966=DIRECTION('center_axis',(0.,1.,0.));
#967=DIRECTION('ref_axis',(1.,0.,0.));
#968=DIRECTION('center_axis',(0.,1.,0.));
#969=DIRECTION('ref_axis',(1.,0.,0.));
#970=DIRECTION('center_axis',(0.,1.,0.));
#971=DIRECTION('ref_axis',(1.,0.,0.));
#972=DIRECTION('center_axis',(0.,1.,0.));
#973=DIRECTION('ref_axis',(1.,0.,0.));
#974=DIRECTION('',(0.,-1.,0.));
#975=DIRECTION('center_axis',(0.,1.,0.));
#976=DIRECTION('ref_axis',(1.,0.,0.));
#977=DIRECTION('',(0.,-1.,0.));
#978=DIRECTION('center_axis',(0.,1.,0.));
#979=DIRECTION('ref_axis',(1.,0.,0.));
#980=DIRECTION('',(0.,-1.,0.));
#981=DIRECTION('center_axis',(0.,1.,0.));
#982=DIRECTION('ref_axis',(1.,0.,0.));
#983=DIRECTION('',(0.,-1.,0.));
#984=CARTESIAN_POINT('',(0.,0.,0.));
#985=CARTESIAN_POINT('Origin',(28.95,-3.,-11.075));
#986=CARTESIAN_POINT('',(70.9,-3.,-35.15));
#987=CARTESIAN_POINT('',(70.9,-3.,13.));
#988=CARTESIAN_POINT('',(70.9,-3.,10.));
#989=CARTESIAN_POINT('',(-13.,-3.,13.));
#990=CARTESIAN_POINT('',(-10.,-3.,13.));
#991=CARTESIAN_POINT('',(-13.,-3.,-35.15));
#992=CARTESIAN_POINT('',(-13.,-3.,-32.15));
#993=CARTESIAN_POINT('',(67.9,-3.,-35.15));
#994=CARTESIAN_POINT('',(61.5500009387731,-3.,5.00000007450581));
#995=CARTESIAN_POINT('Origin',(63.0000009387731,-3.,5.00000007450581));
#996=CARTESIAN_POINT('',(-6.4500000745058,-3.,5.00000007450581));
#997=CARTESIAN_POINT('Origin',(-5.00000007450581,-3.,5.00000007450581));
#998=CARTESIAN_POINT('',(-6.28312247475352,-3.,-27.3113392830324));
#999=CARTESIAN_POINT('Origin',(-4.83312247475351,-3.,-27.3113392830324));
#1000=CARTESIAN_POINT('',(61.5500009387732,-3.,-28.0000004172325));
#1001=CARTESIAN_POINT('Origin',(63.0000009387731,-3.,-28.0000004172325));
#1002=CARTESIAN_POINT('Origin',(67.9,0.,-35.15));
#1003=CARTESIAN_POINT('',(-13.,16.,-35.15));
#1004=CARTESIAN_POINT('',(-13.,0.,-35.15));
#1005=CARTESIAN_POINT('',(70.9,16.,-35.15));
#1006=CARTESIAN_POINT('',(67.9,16.,-35.15));
#1007=CARTESIAN_POINT('',(70.9,0.,-35.15));
#1008=CARTESIAN_POINT('Origin',(-13.,0.,-32.15));
#1009=CARTESIAN_POINT('',(-13.,16.,13.));
#1010=CARTESIAN_POINT('',(-13.,0.,13.));
#1011=CARTESIAN_POINT('',(-13.,16.,-32.15));
#1012=CARTESIAN_POINT('Origin',(-10.,0.,13.));
#1013=CARTESIAN_POINT('',(70.9,16.,13.));
#1014=CARTESIAN_POINT('',(70.9,0.,13.));
#1015=CARTESIAN_POINT('',(-10.,16.,13.));
#1016=CARTESIAN_POINT('Origin',(70.9,0.,10.));
#1017=CARTESIAN_POINT('',(70.9,16.,-32.15));
#1018=CARTESIAN_POINT('Origin',(21.575,13.,-4.975));
#1019=CARTESIAN_POINT('',(21.575,13.,-17.975));
#1020=CARTESIAN_POINT('',(21.575,13.,-4.975));
#1021=CARTESIAN_POINT('',(21.575,13.,-8.025));
#1022=CARTESIAN_POINT('',(21.575,16.,-17.975));
#1023=CARTESIAN_POINT('',(21.575,13.,-17.975));
#1024=CARTESIAN_POINT('',(21.575,16.,-4.975));
#1025=CARTESIAN_POINT('',(21.575,16.,-17.975));
#1026=CARTESIAN_POINT('',(21.575,13.,-4.975));
#1027=CARTESIAN_POINT('Origin',(22.075,13.,-4.975));
#1028=CARTESIAN_POINT('',(22.075,13.,-4.475));
#1029=CARTESIAN_POINT('Origin',(22.075,13.,-4.975));
#1030=CARTESIAN_POINT('',(22.075,16.,-4.475));
#1031=CARTESIAN_POINT('Origin',(22.075,16.,-4.975));
#1032=CARTESIAN_POINT('',(22.075,13.,-4.475));
#1033=CARTESIAN_POINT('Origin',(35.075,13.,-4.475));
#1034=CARTESIAN_POINT('',(35.075,13.,-4.475));
#1035=CARTESIAN_POINT('',(32.0125,13.,-4.475));
#1036=CARTESIAN_POINT('',(35.075,16.,-4.475));
#1037=CARTESIAN_POINT('',(22.075,16.,-4.475));
#1038=CARTESIAN_POINT('',(35.075,13.,-4.475));
#1039=CARTESIAN_POINT('Origin',(35.075,13.,-4.975));
#1040=CARTESIAN_POINT('',(35.575,13.,-4.975));
#1041=CARTESIAN_POINT('Origin',(35.075,13.,-4.975));
#1042=CARTESIAN_POINT('',(35.575,16.,-4.975));
#1043=CARTESIAN_POINT('Origin',(35.075,16.,-4.975));
#1044=CARTESIAN_POINT('',(35.575,13.,-4.975));
#1045=CARTESIAN_POINT('Origin',(35.575,13.,-17.975));
#1046=CARTESIAN_POINT('',(35.575,13.,-17.975));
#1047=CARTESIAN_POINT('',(35.575,13.,-14.525));
#1048=CARTESIAN_POINT('',(35.575,16.,-17.975));
#1049=CARTESIAN_POINT('',(35.575,16.,-17.975));
#1050=CARTESIAN_POINT('',(35.575,13.,-17.975));
#1051=CARTESIAN_POINT('Origin',(35.075,13.,-17.975));
#1052=CARTESIAN_POINT('',(35.075,13.,-18.475));
#1053=CARTESIAN_POINT('Origin',(35.075,13.,-17.975));
#1054=CARTESIAN_POINT('',(35.075,16.,-18.475));
#1055=CARTESIAN_POINT('Origin',(35.075,16.,-17.975));
#1056=CARTESIAN_POINT('',(35.075,13.,-18.475));
#1057=CARTESIAN_POINT('Origin',(22.075,13.,-18.475));
#1058=CARTESIAN_POINT('',(22.075,13.,-18.475));
#1059=CARTESIAN_POINT('',(25.5125,13.,-18.475));
#1060=CARTESIAN_POINT('',(22.075,16.,-18.475));
#1061=CARTESIAN_POINT('',(22.075,16.,-18.475));
#1062=CARTESIAN_POINT('',(22.075,13.,-18.475));
#1063=CARTESIAN_POINT('Origin',(22.075,13.,-17.975));
#1064=CARTESIAN_POINT('Origin',(22.075,13.,-17.975));
#1065=CARTESIAN_POINT('Origin',(22.075,16.,-17.975));
#1066=CARTESIAN_POINT('Origin',(40.625,13.,-4.975));
#1067=CARTESIAN_POINT('',(40.625,13.,-17.975));
#1068=CARTESIAN_POINT('',(40.625,13.,-4.975));
#1069=CARTESIAN_POINT('',(40.625,13.,-8.025));
#1070=CARTESIAN_POINT('',(40.625,16.,-17.975));
#1071=CARTESIAN_POINT('',(40.625,13.,-17.975));
#1072=CARTESIAN_POINT('',(40.625,16.,-4.975));
#1073=CARTESIAN_POINT('',(40.625,16.,-17.975));
#1074=CARTESIAN_POINT('',(40.625,13.,-4.975));
#1075=CARTESIAN_POINT('Origin',(41.125,13.,-4.975));
#1076=CARTESIAN_POINT('',(41.125,13.,-4.475));
#1077=CARTESIAN_POINT('Origin',(41.125,13.,-4.975));
#1078=CARTESIAN_POINT('',(41.125,16.,-4.475));
#1079=CARTESIAN_POINT('Origin',(41.125,16.,-4.975));
#1080=CARTESIAN_POINT('',(41.125,13.,-4.475));
#1081=CARTESIAN_POINT('Origin',(54.125,13.,-4.475));
#1082=CARTESIAN_POINT('',(54.125,13.,-4.475));
#1083=CARTESIAN_POINT('',(41.5375,13.,-4.475));
#1084=CARTESIAN_POINT('',(54.125,16.,-4.475));
#1085=CARTESIAN_POINT('',(41.125,16.,-4.475));
#1086=CARTESIAN_POINT('',(54.125,13.,-4.475));
#1087=CARTESIAN_POINT('Origin',(54.125,13.,-4.975));
#1088=CARTESIAN_POINT('',(54.625,13.,-4.975));
#1089=CARTESIAN_POINT('Origin',(54.125,13.,-4.975));
#1090=CARTESIAN_POINT('',(54.625,16.,-4.975));
#1091=CARTESIAN_POINT('Origin',(54.125,16.,-4.975));
#1092=CARTESIAN_POINT('',(54.625,13.,-4.975));
#1093=CARTESIAN_POINT('Origin',(54.625,13.,-17.975));
#1094=CARTESIAN_POINT('',(54.625,13.,-17.975));
#1095=CARTESIAN_POINT('',(54.625,13.,-14.525));
#1096=CARTESIAN_POINT('',(54.625,16.,-17.975));
#1097=CARTESIAN_POINT('',(54.625,16.,-17.975));
#1098=CARTESIAN_POINT('',(54.625,13.,-17.975));
#1099=CARTESIAN_POINT('Origin',(54.125,13.,-17.975));
#1100=CARTESIAN_POINT('',(54.125,13.,-18.475));
#1101=CARTESIAN_POINT('Origin',(54.125,13.,-17.975));
#1102=CARTESIAN_POINT('',(54.125,16.,-18.475));
#1103=CARTESIAN_POINT('Origin',(54.125,16.,-17.975));
#1104=CARTESIAN_POINT('',(54.125,13.,-18.475));
#1105=CARTESIAN_POINT('Origin',(41.125,13.,-18.475));
#1106=CARTESIAN_POINT('',(41.125,13.,-18.475));
#1107=CARTESIAN_POINT('',(35.0375,13.,-18.475));
#1108=CARTESIAN_POINT('',(41.125,16.,-18.475));
#1109=CARTESIAN_POINT('',(41.125,16.,-18.475));
#1110=CARTESIAN_POINT('',(41.125,13.,-18.475));
#1111=CARTESIAN_POINT('Origin',(41.125,13.,-17.975));
#1112=CARTESIAN_POINT('Origin',(41.125,13.,-17.975));
#1113=CARTESIAN_POINT('Origin',(41.125,16.,-17.975));
#1114=CARTESIAN_POINT('Origin',(2.525,13.,-4.975));
#1115=CARTESIAN_POINT('',(2.525,13.,-17.975));
#1116=CARTESIAN_POINT('',(2.525,13.,-4.975));
#1117=CARTESIAN_POINT('',(2.525,13.,-8.025));
#1118=CARTESIAN_POINT('',(2.525,16.,-17.975));
#1119=CARTESIAN_POINT('',(2.525,13.,-17.975));
#1120=CARTESIAN_POINT('',(2.525,16.,-4.975));
#1121=CARTESIAN_POINT('',(2.525,16.,-17.975));
#1122=CARTESIAN_POINT('',(2.525,13.,-4.975));
#1123=CARTESIAN_POINT('Origin',(3.025,13.,-4.975));
#1124=CARTESIAN_POINT('',(3.025,13.,-4.475));
#1125=CARTESIAN_POINT('Origin',(3.025,13.,-4.975));
#1126=CARTESIAN_POINT('',(3.025,16.,-4.475));
#1127=CARTESIAN_POINT('Origin',(3.025,16.,-4.975));
#1128=CARTESIAN_POINT('',(3.025,13.,-4.475));
#1129=CARTESIAN_POINT('Origin',(16.025,13.,-4.475));
#1130=CARTESIAN_POINT('',(16.025,13.,-4.475));
#1131=CARTESIAN_POINT('',(22.4875,13.,-4.475));
#1132=CARTESIAN_POINT('',(16.025,16.,-4.475));
#1133=CARTESIAN_POINT('',(3.025,16.,-4.475));
#1134=CARTESIAN_POINT('',(16.025,13.,-4.475));
#1135=CARTESIAN_POINT('Origin',(16.025,13.,-4.975));
#1136=CARTESIAN_POINT('',(16.525,13.,-4.975));
#1137=CARTESIAN_POINT('Origin',(16.025,13.,-4.975));
#1138=CARTESIAN_POINT('',(16.525,16.,-4.975));
#1139=CARTESIAN_POINT('Origin',(16.025,16.,-4.975));
#1140=CARTESIAN_POINT('',(16.525,13.,-4.975));
#1141=CARTESIAN_POINT('Origin',(16.525,13.,-17.975));
#1142=CARTESIAN_POINT('',(16.525,13.,-17.975));
#1143=CARTESIAN_POINT('',(16.525,13.,-14.525));
#1144=CARTESIAN_POINT('',(16.525,16.,-17.975));
#1145=CARTESIAN_POINT('',(16.525,16.,-17.975));
#1146=CARTESIAN_POINT('',(16.525,13.,-17.975));
#1147=CARTESIAN_POINT('Origin',(16.025,13.,-17.975));
#1148=CARTESIAN_POINT('',(16.025,13.,-18.475));
#1149=CARTESIAN_POINT('Origin',(16.025,13.,-17.975));
#1150=CARTESIAN_POINT('',(16.025,16.,-18.475));
#1151=CARTESIAN_POINT('Origin',(16.025,16.,-17.975));
#1152=CARTESIAN_POINT('',(16.025,13.,-18.475));
#1153=CARTESIAN_POINT('Origin',(3.025,13.,-18.475));
#1154=CARTESIAN_POINT('',(3.025,13.,-18.475));
#1155=CARTESIAN_POINT('',(15.9875,13.,-18.475));
#1156=CARTESIAN_POINT('',(3.025,16.,-18.475));
#1157=CARTESIAN_POINT('',(3.025,16.,-18.475));
#1158=CARTESIAN_POINT('',(3.025,13.,-18.475));
#1159=CARTESIAN_POINT('Origin',(3.025,13.,-17.975));
#1160=CARTESIAN_POINT('Origin',(3.025,13.,-17.975));
#1161=CARTESIAN_POINT('Origin',(3.025,16.,-17.975));
#1162=CARTESIAN_POINT('Origin',(28.575,16.,-11.475));
#1163=CARTESIAN_POINT('',(61.5500009387731,16.,5.00000007450581));
#1164=CARTESIAN_POINT('Origin',(63.0000009387731,16.,5.00000007450581));
#1165=CARTESIAN_POINT('',(-6.4500000745058,16.,5.00000007450581));
#1166=CARTESIAN_POINT('Origin',(-5.00000007450581,16.,5.00000007450581));
#1167=CARTESIAN_POINT('',(-6.28312247475352,16.,-27.3113392830324));
#1168=CARTESIAN_POINT('Origin',(-4.83312247475351,16.,-27.3113392830324));
#1169=CARTESIAN_POINT('',(61.5500009387732,16.,-28.0000004172325));
#1170=CARTESIAN_POINT('Origin',(63.0000009387731,16.,-28.0000004172325));
#1171=CARTESIAN_POINT('Origin',(28.95,13.,-11.075));
#1172=CARTESIAN_POINT('Origin',(28.95,13.,-11.075));
#1173=CARTESIAN_POINT('Origin',(28.95,13.,-11.075));
#1174=CARTESIAN_POINT('Origin',(63.0000009387731,0.,-28.0000004172325));
#1175=CARTESIAN_POINT('',(61.5500009387732,0.,-28.0000004172325));
#1176=CARTESIAN_POINT('Origin',(-4.83312247475351,0.,-27.3113392830324));
#1177=CARTESIAN_POINT('',(-6.28312247475351,0.,-27.3113392830324));
#1178=CARTESIAN_POINT('Origin',(-5.00000007450581,0.,5.00000007450581));
#1179=CARTESIAN_POINT('',(-6.45000007450581,0.,5.00000007450581));
#1180=CARTESIAN_POINT('Origin',(63.0000009387731,0.,5.00000007450581));
#1181=CARTESIAN_POINT('',(61.5500009387731,0.,5.00000007450581));
#1182=UNCERTAINTY_MEASURE_WITH_UNIT(LENGTH_MEASURE(0.01),#1186,
'DISTANCE_ACCURACY_VALUE',
'Maximum model space distance between geometric entities at asserted c
onnectivities');
#1183=UNCERTAINTY_MEASURE_WITH_UNIT(LENGTH_MEASURE(0.01),#1186,
'DISTANCE_ACCURACY_VALUE',
'Maximum model space distance between geometric entities at asserted c
onnectivities');
#1184=(
GEOMETRIC_REPRESENTATION_CONTEXT(3)
GLOBAL_UNCERTAINTY_ASSIGNED_CONTEXT((#1182))
GLOBAL_UNIT_ASSIGNED_CONTEXT((#1186,#1188,#1189))
REPRESENTATION_CONTEXT('','3D')
);
#1185=(
GEOMETRIC_REPRESENTATION_CONTEXT(3)
GLOBAL_UNCERTAINTY_ASSIGNED_CONTEXT((#1183))
GLOBAL_UNIT_ASSIGNED_CONTEXT((#1186,#1188,#1189))
REPRESENTATION_CONTEXT('','3D')
);
#1186=(
LENGTH_UNIT()
NAMED_UNIT(*)
SI_UNIT(.MILLI.,.METRE.)
);
#1187=(
LENGTH_UNIT()
NAMED_UNIT(*)
SI_UNIT($,.METRE.)
);
#1188=(
NAMED_UNIT(*)
PLANE_ANGLE_UNIT()
SI_UNIT($,.RADIAN.)
);
#1189=(
NAMED_UNIT(*)
SI_UNIT($,.STERADIAN.)
SOLID_ANGLE_UNIT()
);
#1190=SHAPE_DEFINITION_REPRESENTATION(#1191,#1192);
#1191=PRODUCT_DEFINITION_SHAPE('',$,#1194);
#1192=SHAPE_REPRESENTATION('',(#710),#1184);
#1193=PRODUCT_DEFINITION_CONTEXT('part definition',#1198,'design');
#1194=PRODUCT_DEFINITION('2026-07-31-17-26-23-464','Hackpad',#1195,#1193);
#1195=PRODUCT_DEFINITION_FORMATION('',$,#1200);
#1196=PRODUCT_RELATED_PRODUCT_CATEGORY('Hackpad','Hackpad',(#1200));
#1197=APPLICATION_PROTOCOL_DEFINITION('international standard',
'automotive_design',2009,#1198);
#1198=APPLICATION_CONTEXT(
'Core Data for Automotive Mechanical Design Process');
#1199=PRODUCT_CONTEXT('part definition',#1198,'mechanical');
#1200=PRODUCT('2026-07-31-17-26-23-464','Hackpad',$,(#1199));
#1201=PRESENTATION_STYLE_ASSIGNMENT((#1202));
#1202=SURFACE_STYLE_USAGE(.BOTH.,#1203);
#1203=SURFACE_SIDE_STYLE('',(#1204));
#1204=SURFACE_STYLE_FILL_AREA(#1205);
#1205=FILL_AREA_STYLE('Steel - Satin',(#1206));
#1206=FILL_AREA_STYLE_COLOUR('Steel - Satin',#1207);
#1207=COLOUR_RGB('Steel - Satin',0.627450980392157,0.627450980392157,0.627450980392157);
ENDSEC;
END-ISO-10303-21;
